<?xml version="1.0" encoding="utf-8"?>
<!-- Svg Vector Icons : http://www.onlinewebfonts.com/icon -->
<!DOCTYPE svg PUBLIC "-//W3C//DTD SVG 1.1//EN" "http://www.w3.org/Graphics/SVG/1.1/DTD/svg11.dtd">
<svg version="1.1" xmlns="http://www.w3.org/2000/svg" xmlns:xlink="http://www.w3.org/1999/xlink" x="0px" y="0px" viewBox="0 0 1000 1000" enable-background="new 0 0 1000 1000" xml:space="preserve">
<metadata> Svg Vector Icons : http://www.onlinewebfonts.com/icon </metadata>
<g><g><path d="M984.2,514c3.6-3.8,5.9-9.1,5.8-14.3c-0.1-5.3-2.3-10.4-6.1-14.1c-1.2-1.2-2.5-2.2-3.9-3L746.3,347.7c-9.6-5.5-21.9-2.3-27.4,7.3c-5.5,9.6-2.3,21.9,7.3,27.4l168.9,97.5H323.7L181.8,398c-9.6-5.5-21.9-2.3-27.4,7.3c-5.5,9.6-2.3,21.9,7.3,27.4l81.7,47.2h-43.1L58.5,398c-9.6-5.5-21.9-2.3-27.4,7.3c-5.5,9.6-2.3,21.9,7.3,27.4l81.7,47.2h-90c-11.1,0-20.1,9-20.1,20.1c0,11.1,9,20.1,20.1,20.1h90l-81.7,47.2c-9.6,5.5-12.9,17.8-7.3,27.4c3.7,6.4,10.5,10,17.4,10c3.4,0,6.9-0.9,10-2.7l141.9-81.9h43.1l-81.7,47.2c-9.6,5.5-12.9,17.8-7.3,27.4c3.7,6.4,10.5,10,17.4,10c3.4,0,6.9-0.9,10-2.7l141.9-81.9h571.4l-168.9,97.5c-9.6,5.5-12.9,17.8-7.3,27.4c3.7,6.4,10.5,10,17.4,10c3.4,0,6.9-0.9,10-2.7c0,0,233.6-134.9,233.7-134.9C981.5,516.5,983,515.3,984.2,514z"/></g><g></g><g></g><g></g><g></g><g></g><g></g><g></g><g></g><g></g><g></g><g></g><g></g><g></g><g></g><g></g></g>
</svg>