<svg xmlns="http://www.w3.org/2000/svg" xmlns:xlink="http://www.w3.org/1999/xlink" width="500" zoomAndPan="magnify" viewBox="0 0 375 374.999991" height="500" preserveAspectRatio="xMidYMid meet" version="1.0"><defs><g/><clipPath id="98555b7109"><path d="M 48.941406 48.941406 L 325.691406 48.941406 L 325.691406 325.691406 L 48.941406 325.691406 Z M 48.941406 48.941406 " clip-rule="nonzero"/></clipPath><clipPath id="d14369dfc1"><path d="M 133.488281 133.488281 L 241.488281 133.488281 L 241.488281 241.488281 L 133.488281 241.488281 Z M 133.488281 133.488281 " clip-rule="nonzero"/></clipPath></defs><g clip-path="url(#98555b7109)"><path fill="#000000" d="M 187.316406 325.691406 C 111.039062 325.691406 48.941406 263.59375 48.941406 187.316406 C 48.941406 111.039062 111.039062 48.941406 187.316406 48.941406 C 263.59375 48.941406 325.691406 111.039062 325.691406 187.316406 C 325.691406 263.59375 263.59375 325.691406 187.316406 325.691406 Z M 187.316406 50.984375 C 112.128906 50.984375 50.984375 112.128906 50.984375 187.316406 C 50.984375 262.5 112.128906 323.644531 187.316406 323.644531 C 262.5 323.644531 323.644531 262.5 323.644531 187.316406 C 323.644531 112.128906 262.5 50.984375 187.316406 50.984375 Z M 187.316406 50.984375 " fill-opacity="1" fill-rule="nonzero"/></g><g clip-path="url(#d14369dfc1)"><path fill="#000000" d="M 236.792969 152.273438 L 210.96875 152.273438 L 210.96875 151.636719 C 210.96875 151.042969 210.9375 150.453125 210.878906 149.859375 C 210.820312 149.269531 210.730469 148.683594 210.617188 148.097656 C 210.5 147.515625 210.355469 146.941406 210.179688 146.371094 C 210.007812 145.804688 209.808594 145.246094 209.582031 144.695312 C 209.351562 144.148438 209.097656 143.613281 208.816406 143.085938 C 208.539062 142.5625 208.230469 142.054688 207.902344 141.5625 C 207.570312 141.066406 207.21875 140.589844 206.839844 140.132812 C 206.464844 139.671875 206.066406 139.230469 205.644531 138.8125 C 205.226562 138.390625 204.785156 137.992188 204.328125 137.617188 C 203.867188 137.238281 203.390625 136.886719 202.898438 136.554688 C 202.402344 136.226562 201.894531 135.917969 201.371094 135.640625 C 200.847656 135.359375 200.308594 135.105469 199.761719 134.878906 C 199.210938 134.648438 198.652344 134.449219 198.085938 134.277344 C 197.515625 134.101562 196.941406 133.957031 196.359375 133.84375 C 195.777344 133.726562 195.1875 133.636719 194.597656 133.578125 C 194.007812 133.519531 193.414062 133.492188 192.820312 133.488281 L 182.160156 133.488281 C 181.566406 133.492188 180.972656 133.519531 180.382812 133.578125 C 179.789062 133.636719 179.203125 133.726562 178.621094 133.84375 C 178.039062 133.957031 177.460938 134.101562 176.894531 134.277344 C 176.324219 134.449219 175.765625 134.648438 175.21875 134.878906 C 174.667969 135.105469 174.132812 135.359375 173.609375 135.640625 C 173.085938 135.917969 172.578125 136.226562 172.082031 136.554688 C 171.589844 136.886719 171.113281 137.238281 170.652344 137.617188 C 170.195312 137.992188 169.753906 138.390625 169.332031 138.8125 C 168.914062 139.230469 168.515625 139.671875 168.136719 140.132812 C 167.761719 140.589844 167.40625 141.066406 167.078125 141.5625 C 166.746094 142.054688 166.441406 142.5625 166.160156 143.085938 C 165.882812 143.613281 165.625 144.148438 165.398438 144.695312 C 165.171875 145.246094 164.972656 145.804688 164.796875 146.371094 C 164.625 146.941406 164.480469 147.515625 164.363281 148.097656 C 164.246094 148.683594 164.160156 149.269531 164.101562 149.859375 C 164.042969 150.453125 164.011719 151.042969 164.011719 151.636719 L 164.011719 152.273438 L 138.183594 152.273438 C 137.875 152.273438 137.570312 152.300781 137.269531 152.363281 C 136.964844 152.421875 136.671875 152.511719 136.386719 152.628906 C 136.101562 152.746094 135.832031 152.890625 135.578125 153.0625 C 135.320312 153.234375 135.082031 153.429688 134.863281 153.648438 C 134.648438 153.867188 134.453125 154.101562 134.28125 154.359375 C 134.109375 154.617188 133.964844 154.886719 133.847656 155.171875 C 133.730469 155.457031 133.640625 155.75 133.578125 156.050781 C 133.519531 156.355469 133.488281 156.660156 133.488281 156.96875 L 133.488281 236.792969 C 133.488281 237.101562 133.519531 237.40625 133.578125 237.710938 C 133.640625 238.011719 133.730469 238.304688 133.847656 238.589844 C 133.964844 238.875 134.109375 239.144531 134.28125 239.402344 C 134.453125 239.660156 134.648438 239.894531 134.863281 240.113281 C 135.082031 240.332031 135.320312 240.527344 135.578125 240.699219 C 135.832031 240.871094 136.101562 241.015625 136.386719 241.132812 C 136.671875 241.25 136.964844 241.339844 137.269531 241.398438 C 137.570312 241.460938 137.875 241.488281 138.183594 241.488281 L 236.792969 241.488281 C 237.101562 241.488281 237.40625 241.460938 237.710938 241.398438 C 238.011719 241.339844 238.304688 241.25 238.589844 241.132812 C 238.875 241.015625 239.144531 240.871094 239.402344 240.699219 C 239.660156 240.527344 239.894531 240.332031 240.113281 240.113281 C 240.332031 239.894531 240.527344 239.660156 240.699219 239.402344 C 240.871094 239.144531 241.015625 238.875 241.132812 238.589844 C 241.25 238.304688 241.339844 238.011719 241.398438 237.710938 C 241.460938 237.40625 241.488281 237.101562 241.488281 236.792969 L 241.488281 156.96875 C 241.488281 156.660156 241.460938 156.355469 241.398438 156.050781 C 241.339844 155.75 241.25 155.457031 241.132812 155.171875 C 241.015625 154.886719 240.871094 154.617188 240.699219 154.359375 C 240.527344 154.101562 240.332031 153.867188 240.113281 153.648438 C 239.894531 153.429688 239.660156 153.234375 239.402344 153.0625 C 239.144531 152.890625 238.875 152.746094 238.589844 152.628906 C 238.304688 152.511719 238.011719 152.421875 237.710938 152.363281 C 237.40625 152.300781 237.101562 152.273438 236.792969 152.273438 Z M 173.402344 151.636719 C 173.402344 151.0625 173.460938 150.496094 173.574219 149.929688 C 173.6875 149.367188 173.855469 148.820312 174.074219 148.289062 C 174.296875 147.761719 174.566406 147.257812 174.886719 146.777344 C 175.207031 146.300781 175.566406 145.859375 175.972656 145.453125 C 176.378906 145.046875 176.824219 144.683594 177.300781 144.363281 C 177.777344 144.042969 178.28125 143.773438 178.8125 143.554688 C 179.34375 143.332031 179.890625 143.167969 180.453125 143.054688 C 181.015625 142.941406 181.585938 142.882812 182.160156 142.882812 L 192.796875 142.882812 C 193.371094 142.882812 193.941406 142.9375 194.507812 143.050781 C 195.070312 143.160156 195.617188 143.328125 196.152344 143.546875 C 196.683594 143.765625 197.1875 144.035156 197.667969 144.355469 C 198.144531 144.675781 198.589844 145.039062 198.996094 145.445312 C 199.402344 145.851562 199.769531 146.292969 200.089844 146.769531 C 200.410156 147.25 200.679688 147.753906 200.902344 148.285156 C 201.121094 148.816406 201.289062 149.363281 201.402344 149.929688 C 201.515625 150.492188 201.574219 151.0625 201.578125 151.636719 L 201.578125 152.273438 L 173.402344 152.273438 Z M 168.707031 161.664062 L 232.097656 161.664062 L 232.097656 187.488281 L 199.230469 187.488281 L 199.230469 182.792969 C 199.230469 182.484375 199.199219 182.179688 199.136719 181.878906 C 199.078125 181.574219 198.988281 181.28125 198.871094 180.996094 C 198.753906 180.710938 198.609375 180.441406 198.4375 180.183594 C 198.265625 179.929688 198.070312 179.691406 197.851562 179.472656 C 197.636719 179.253906 197.398438 179.0625 197.140625 178.890625 C 196.886719 178.71875 196.613281 178.574219 196.328125 178.457031 C 196.046875 178.335938 195.75 178.25 195.449219 178.1875 C 195.148438 178.128906 194.839844 178.097656 194.53125 178.097656 L 180.445312 178.097656 C 180.136719 178.097656 179.832031 178.128906 179.53125 178.1875 C 179.226562 178.25 178.933594 178.335938 178.648438 178.457031 C 178.363281 178.574219 178.09375 178.71875 177.835938 178.890625 C 177.582031 179.0625 177.34375 179.253906 177.125 179.472656 C 176.90625 179.691406 176.714844 179.929688 176.542969 180.183594 C 176.371094 180.441406 176.226562 180.710938 176.109375 180.996094 C 175.988281 181.28125 175.902344 181.574219 175.839844 181.878906 C 175.78125 182.179688 175.75 182.484375 175.75 182.792969 L 175.75 187.488281 L 142.882812 187.488281 L 142.882812 161.664062 Z M 189.835938 187.488281 L 189.835938 196.882812 L 185.140625 196.882812 L 185.140625 187.488281 Z M 142.882812 232.097656 L 142.882812 196.882812 L 175.75 196.882812 L 175.75 201.578125 C 175.75 201.886719 175.78125 202.191406 175.839844 202.492188 C 175.902344 202.796875 175.988281 203.089844 176.109375 203.375 C 176.226562 203.660156 176.371094 203.929688 176.542969 204.183594 C 176.714844 204.441406 176.90625 204.679688 177.125 204.898438 C 177.34375 205.113281 177.582031 205.308594 177.835938 205.480469 C 178.09375 205.652344 178.363281 205.796875 178.648438 205.914062 C 178.933594 206.03125 179.226562 206.121094 179.53125 206.183594 C 179.832031 206.242188 180.136719 206.273438 180.445312 206.273438 L 194.53125 206.273438 C 194.839844 206.273438 195.148438 206.242188 195.449219 206.183594 C 195.75 206.121094 196.046875 206.03125 196.328125 205.914062 C 196.613281 205.796875 196.886719 205.652344 197.140625 205.480469 C 197.398438 205.308594 197.636719 205.113281 197.851562 204.898438 C 198.070312 204.679688 198.265625 204.441406 198.4375 204.183594 C 198.609375 203.929688 198.753906 203.660156 198.871094 203.375 C 198.988281 203.089844 199.078125 202.796875 199.136719 202.492188 C 199.199219 202.191406 199.230469 201.886719 199.230469 201.578125 L 199.230469 196.882812 L 232.097656 196.882812 L 232.097656 232.097656 Z M 142.882812 232.097656 " fill-opacity="1" fill-rule="nonzero"/></g><g fill="#000000" fill-opacity="1"><g transform="translate(135.249743, 296.636712)"><g><path d="M 0.6875 0.265625 L 16.1875 -17.734375 L 20.484375 -16.109375 L 20.25 7.640625 L 16.203125 6.109375 L 16.34375 0.65625 L 8.21875 -2.421875 L 4.671875 1.765625 Z M 10.375 -5.015625 L 16.4375 -2.71875 L 16.65625 -12.546875 Z M 10.375 -5.015625 "/></g></g></g><g fill="#000000" fill-opacity="1"><g transform="translate(165.563004, 306.486913)"><g><path d="M 2.15625 0.234375 L 4.640625 -21.9375 L 8.703125 -21.484375 L 6.578125 -2.484375 L 16.390625 -1.375 L 16.03125 1.796875 Z M 2.15625 0.234375 "/></g></g></g><g fill="#000000" fill-opacity="1"><g transform="translate(192.413729, 308.450117)"><g><path d="M 2.15625 -0.265625 L -0.515625 -22.421875 L 13.9375 -24.15625 L 14.328125 -20.890625 L 3.921875 -19.640625 L 4.65625 -13.5625 L 14.125 -14.703125 L 14.515625 -11.546875 L 5.046875 -10.40625 L 5.8125 -4 L 16.21875 -5.25 L 16.609375 -2 Z M 2.15625 -0.265625 "/></g></g></g><g fill="#000000" fill-opacity="1"><g transform="translate(220.041463, 304.091197)"><g><path d="M 1 -0.390625 L 3.484375 -13.421875 L -7.09375 -21.1875 L -2.71875 -22.859375 L 4.734375 -17.390625 L 6.234375 -26.3125 L 10.515625 -27.953125 L 8.03125 -14.984375 L 18.6875 -7.1875 L 14.3125 -5.5 L 6.75 -11.03125 L 5.296875 -2.03125 Z M 1 -0.390625 "/></g></g></g><g fill="#000000" fill-opacity="1"><g transform="translate(94.59598, 117.3055)"><g><path d="M 0.84375 -0.78125 L -7.1875 -9.53125 L -5.28125 -11.28125 L 2.59375 -8.28125 L 0.25 -16.359375 L 2.15625 -18.109375 L 10.1875 -9.359375 L 8.578125 -7.890625 L 3.03125 -13.9375 L 4.984375 -6.890625 L 3.734375 -5.75 L -3.09375 -8.296875 L 2.453125 -2.25 Z M 0.84375 -0.78125 "/></g></g></g><g fill="#000000" fill-opacity="1"><g transform="translate(115.825484, 99.741334)"><g><path d="M 0.328125 -0.203125 L -2.046875 -12.609375 L 0.03125 -13.859375 L 9.875 -5.9375 L 7.90625 -4.75 L 5.65625 -6.609375 L 1.6875 -4.234375 L 2.296875 -1.375 Z M 1.3125 -5.984375 L 4.28125 -7.765625 L 0.25 -11.109375 Z M 1.3125 -5.984375 "/></g></g></g><g fill="#000000" fill-opacity="1"><g transform="translate(137.478319, 88.169358)"><g><path d="M 1.078125 -0.40625 L -3.0625 -11.53125 L 1.03125 -13.046875 C 1.914062 -13.378906 2.707031 -13.5 3.40625 -13.40625 C 4.101562 -13.320312 4.6875 -13.078125 5.15625 -12.671875 C 5.625 -12.265625 5.976562 -11.75 6.21875 -11.125 C 6.46875 -10.4375 6.519531 -9.742188 6.375 -9.046875 C 6.226562 -8.359375 5.828125 -7.75 5.171875 -7.21875 L 9.21875 -3.421875 L 6.875 -2.546875 L 3.171875 -6.171875 L 1.5 -5.546875 L 3.125 -1.15625 Z M 0.9375 -7.046875 L 2.84375 -7.765625 C 3.53125 -8.015625 3.972656 -8.363281 4.171875 -8.8125 C 4.367188 -9.257812 4.363281 -9.753906 4.15625 -10.296875 C 3.957031 -10.828125 3.644531 -11.191406 3.21875 -11.390625 C 2.789062 -11.597656 2.226562 -11.566406 1.53125 -11.296875 L -0.375 -10.59375 Z M 0.9375 -7.046875 "/></g></g></g><g fill="#000000" fill-opacity="1"><g transform="translate(159.608475, 81.118369)"><g><path d="M 6.46875 -0.890625 C 5.289062 -0.691406 4.234375 -0.773438 3.296875 -1.140625 C 2.367188 -1.503906 1.597656 -2.097656 0.984375 -2.921875 C 0.367188 -3.753906 -0.0351562 -4.769531 -0.234375 -5.96875 C -0.441406 -7.15625 -0.394531 -8.242188 -0.09375 -9.234375 C 0.207031 -10.234375 0.738281 -11.0625 1.5 -11.71875 C 2.269531 -12.375 3.242188 -12.800781 4.421875 -13 C 5.828125 -13.238281 7.035156 -13.082031 8.046875 -12.53125 C 9.066406 -11.988281 9.796875 -11.113281 10.234375 -9.90625 L 7.875 -9.5 C 7.625 -10.113281 7.226562 -10.554688 6.6875 -10.828125 C 6.15625 -11.109375 5.5 -11.1875 4.71875 -11.0625 C 3.644531 -10.875 2.859375 -10.359375 2.359375 -9.515625 C 1.867188 -8.679688 1.734375 -7.625 1.953125 -6.34375 C 2.171875 -5.050781 2.648438 -4.09375 3.390625 -3.46875 C 4.128906 -2.84375 5.035156 -2.625 6.109375 -2.8125 C 6.890625 -2.9375 7.488281 -3.207031 7.90625 -3.625 C 8.320312 -4.050781 8.550781 -4.582031 8.59375 -5.21875 L 10.953125 -5.625 C 10.941406 -4.363281 10.539062 -3.316406 9.75 -2.484375 C 8.96875 -1.660156 7.875 -1.128906 6.46875 -0.890625 Z M 6.46875 -0.890625 "/></g></g></g><g fill="#000000" fill-opacity="1"><g transform="translate(184.560193, 78.147523)"><g><path d="M 1.15625 0.03125 L 1.453125 -11.84375 L 3.625 -11.796875 L 3.5 -6.859375 L 8.828125 -6.71875 L 8.953125 -11.65625 L 11.125 -11.609375 L 10.828125 0.265625 L 8.65625 0.21875 L 8.78125 -4.953125 L 3.453125 -5.09375 L 3.328125 0.078125 Z M 1.15625 0.03125 "/></g></g></g><g fill="#000000" fill-opacity="1"><g transform="translate(209.13486, 80.018189)"><g><path d="M 1.125 0.234375 L 3.578125 -11.390625 L 11.171875 -9.78125 L 10.8125 -8.0625 L 5.34375 -9.21875 L 4.671875 -6.046875 L 9.640625 -5 L 9.28125 -3.328125 L 4.3125 -4.375 L 3.609375 -1.03125 L 9.078125 0.125 L 8.71875 1.84375 Z M 1.125 0.234375 "/></g></g></g><g fill="#000000" fill-opacity="1"><g transform="translate(230.911694, 85.73957)"><g><path d="M 3.640625 1.46875 L 7.421875 -7.921875 L 4.203125 -9.21875 L 4.859375 -10.84375 L 13.3125 -7.4375 L 12.65625 -5.8125 L 9.4375 -7.109375 L 5.65625 2.28125 Z M 3.640625 1.46875 "/></g></g></g><g fill="#000000" fill-opacity="1"><g transform="translate(251.548671, 95.271344)"><g><path d="M 3.328125 2.078125 L 8.703125 -6.5 L 5.765625 -8.34375 L 6.703125 -9.828125 L 14.421875 -4.984375 L 13.484375 -3.5 L 10.53125 -5.34375 L 5.15625 3.234375 Z M 3.328125 2.078125 "/></g></g></g><g fill="#000000" fill-opacity="1"><g transform="translate(270.19719, 108.182298)"><g><path d="M 4.78125 4.734375 C 3.90625 3.921875 3.320312 3.019531 3.03125 2.03125 C 2.738281 1.039062 2.722656 0.0390625 2.984375 -0.96875 C 3.242188 -1.988281 3.785156 -2.941406 4.609375 -3.828125 C 5.429688 -4.710938 6.335938 -5.320312 7.328125 -5.65625 C 8.328125 -5.988281 9.328125 -6.039062 10.328125 -5.8125 C 11.328125 -5.59375 12.265625 -5.078125 13.140625 -4.265625 C 14.003906 -3.460938 14.585938 -2.566406 14.890625 -1.578125 C 15.191406 -0.585938 15.207031 0.410156 14.9375 1.421875 C 14.675781 2.429688 14.132812 3.378906 13.3125 4.265625 C 12.488281 5.148438 11.582031 5.757812 10.59375 6.09375 C 9.601562 6.4375 8.601562 6.492188 7.59375 6.265625 C 6.582031 6.046875 5.644531 5.535156 4.78125 4.734375 Z M 6.109375 3.296875 C 6.941406 4.066406 7.859375 4.40625 8.859375 4.3125 C 9.859375 4.226562 10.800781 3.710938 11.6875 2.765625 C 12.570312 1.804688 13.019531 0.828125 13.03125 -0.171875 C 13.050781 -1.179688 12.644531 -2.070312 11.8125 -2.84375 C 10.976562 -3.613281 10.0625 -3.957031 9.0625 -3.875 C 8.0625 -3.789062 7.117188 -3.269531 6.234375 -2.3125 C 5.347656 -1.363281 4.894531 -0.382812 4.875 0.625 C 4.863281 1.632812 5.273438 2.523438 6.109375 3.296875 Z M 6.109375 3.296875 "/></g></g></g></svg>