<?xml version="1.0" encoding="utf-8"?>
<!-- Svg Vector Icons : http://www.onlinewebfonts.com/icon -->
<!DOCTYPE svg PUBLIC "-//W3C//DTD SVG 1.1//EN" "http://www.w3.org/Graphics/SVG/1.1/DTD/svg11.dtd">
<svg version="1.1" xmlns="http://www.w3.org/2000/svg" xmlns:xlink="http://www.w3.org/1999/xlink" x="0px" y="0px" viewBox="0 0 1000 1000" enable-background="new 0 0 1000 1000" xml:space="preserve">
<metadata> Svg Vector Icons : http://www.onlinewebfonts.com/icon </metadata>
<g><path d="M500,546.9c-59.3,0-107.3-48.7-107.3-108.8c0-60.1,47.9-108.9,107.3-108.9c59.3,0,107.3,48.7,107.3,108.9C607.3,498.1,559.3,546.9,500,546.9z M500,274.6c-89,0-161,73.1-161,163.4c0,90.1,72,163.2,161,163.2c89,0,161-73.1,161-163.2C661,347.7,589,274.6,500,274.6z M500,10c-219.3,0-397.3,180.4-397.3,402.9C102.7,635.3,500,990,500,990s397.3-354.7,397.3-577.1C897.3,190.4,719.3,10,500,10z M500,64.6c46.4,0,91.4,9,133.8,27.3c40.8,17.5,77.6,42.6,109.1,74.7c31.8,32,56.4,69.1,73.6,110.7c18,42.9,27,88.5,27,135.6c0,20.4-4.5,44-13.8,70.2c-9.3,26.2-22.8,55.1-40.5,85.8C758,623.2,714,683.3,658.9,748.4c-60.7,71-121.8,131.9-158.9,167.7c-36.8-35.5-97.7-96.1-158.1-166.9c-55.4-65.2-99.6-125.5-130.8-179.8c-17.7-31-31.5-59.9-40.8-86.1c-9.3-26.5-13.8-50.1-13.8-70.5c0-47.1,9-92.7,27-135.6c17.2-41.6,41.8-78.7,73.6-110.7c31.5-32,68.3-57.2,109.1-74.7C408.6,73.6,453.6,64.6,500,64.6z"/></g>
</svg>