<?xml version="1.0" encoding="iso-8859-1"?>
<!-- Generator: Adobe Illustrator 19.1.0, SVG Export Plug-In . SVG Version: 6.00 Build 0)  -->
<svg version="1.1" id="Capa_1" xmlns="http://www.w3.org/2000/svg" xmlns:xlink="http://www.w3.org/1999/xlink" x="0px" y="0px"
	 viewBox="0 0 289.739 289.739" style="enable-background:new 0 0 289.739 289.739;" xml:space="preserve">
<g>
	<path d="M283.702,138.833h-7.847c-3.018-67.606-57.344-121.932-124.95-124.95V6.036c0-3.622-2.414-6.036-6.036-6.036
		c-3.622,0-6.036,2.414-6.036,6.036v7.847c-67.606,3.018-121.932,57.344-124.95,124.95H6.036c-3.622,0-6.036,2.414-6.036,6.036
		c0,3.622,2.414,6.036,6.036,6.036h7.847c3.018,67.606,57.344,121.932,124.95,124.95v7.847c0,3.622,2.414,6.036,6.036,6.036
		c3.622,0,6.036-2.414,6.036-6.036v-7.847c67.606-3.018,121.932-57.344,124.95-124.95h7.847c3.622,0,6.036-2.414,6.036-6.036
		C289.739,141.247,287.324,138.833,283.702,138.833z M263.783,138.833h-28.37c-3.018-45.272-39.235-80.885-83.903-83.903v-28.37
		C211.871,28.974,260.765,77.867,263.783,138.833z M144.869,182.897c-21.127,0-38.028-16.901-38.028-38.028
		s16.901-38.028,38.028-38.028s38.028,16.901,38.028,38.028S165.996,182.897,144.869,182.897z M138.833,95.372
		c-22.938,3.018-40.443,20.523-43.461,43.461h-28.37c3.018-38.632,33.803-68.813,71.831-71.831L138.833,95.372L138.833,95.372z
		 M95.372,150.905c3.018,22.938,20.523,40.443,43.461,43.461v28.37c-38.632-3.018-68.813-33.803-71.831-71.831L95.372,150.905
		L95.372,150.905z M150.905,194.366c22.938-3.018,40.443-20.523,43.461-43.461h28.37c-3.018,38.632-33.803,68.813-71.831,71.831
		V194.366z M194.366,138.833c-3.018-22.938-20.523-40.443-43.461-43.461v-28.37c38.632,3.018,68.813,33.803,71.831,71.831
		L194.366,138.833L194.366,138.833z M138.833,25.956v28.37c-45.272,3.018-80.885,39.235-83.903,83.903h-28.37
		C28.974,77.867,77.867,28.974,138.833,25.956z M25.956,150.905h28.37c3.018,45.272,39.235,80.885,83.903,83.903v28.37
		C77.867,260.765,28.974,211.871,25.956,150.905z M150.905,263.783v-28.37c45.272-3.018,80.885-39.235,83.903-83.903h28.37
		C260.765,211.871,211.871,260.765,150.905,263.783z"/>
</g>
<g>
</g>
<g>
</g>
<g>
</g>
<g>
</g>
<g>
</g>
<g>
</g>
<g>
</g>
<g>
</g>
<g>
</g>
<g>
</g>
<g>
</g>
<g>
</g>
<g>
</g>
<g>
</g>
<g>
</g>
</svg>
